<svg width="586" height="199" viewBox="0 0 586 199" fill="none" xmlns="http://www.w3.org/2000/svg">
<g style="mix-blend-mode:difference">
<path d="M0 196.873H40.6246V0H0V6.24994C19.7915 6.24994 19.7915 14.5832 19.7915 38.0205V158.853C19.7915 182.29 19.7915 190.623 0 190.623V196.873ZM40.6246 196.873V182.03C44.7913 183.592 54.1662 185.675 62.4995 185.675C102.082 185.675 115.624 134.374 115.624 98.1762C115.624 62.239 102.603 12.2395 60.937 12.2395C54.1662 12.2395 46.6142 13.5415 40.6246 15.6249V0H64.3224C104.947 0 138.54 23.6977 138.54 95.3117C138.54 152.603 117.186 196.873 65.364 196.873H40.6246Z" fill="white"/>
<path d="M185.944 80.2076C182.559 80.2076 177.35 88.8013 172.923 102.082V158.853C172.923 182.29 172.923 190.623 187.246 190.623V196.873H140.892V190.623C155.215 190.623 155.215 182.29 155.215 158.853V104.687C155.215 83.8534 153.913 74.7389 141.153 82.0305L138.028 76.5618L167.715 59.3745H172.923V87.2388C179.434 70.8327 186.465 59.3745 196.881 59.3745C204.694 59.3745 212.246 65.8848 212.246 76.3014C212.246 85.9368 205.475 89.843 200.788 89.843C193.496 89.843 189.59 80.2076 185.944 80.2076Z" fill="white"/>
<path d="M244.952 70.8327C230.63 70.8327 223.859 90.6242 222.817 104.947H264.483C263.963 88.8013 258.754 70.8327 244.952 70.8327ZM207.192 130.207C207.192 99.4783 218.65 59.3745 249.64 59.3745C275.681 59.3745 286.879 87.2388 286.879 113.801V114.322H222.817C222.817 139.061 231.671 174.478 255.89 174.478C271.775 174.478 278.285 158.853 282.452 144.53L287.139 145.832C284.535 167.446 272.556 198.957 247.296 198.957C219.953 198.957 207.192 162.759 207.192 130.207Z" fill="white"/>
<path d="M325.009 70.8327C310.687 70.8327 303.916 90.6242 302.874 104.947H344.54C344.02 88.8013 338.811 70.8327 325.009 70.8327ZM287.249 130.207C287.249 99.4783 298.708 59.3745 329.697 59.3745C355.738 59.3745 366.936 87.2388 366.936 113.801V114.322H302.874C302.874 139.061 311.728 174.478 335.947 174.478C351.832 174.478 358.342 158.853 362.509 144.53L367.197 145.832C364.592 167.446 352.613 198.957 327.353 198.957C300.01 198.957 287.249 162.759 287.249 130.207Z" fill="white"/>
<path d="M423.556 196.873V190.623C435.795 190.623 435.795 182.29 435.795 158.853V112.239C435.795 101.301 435.275 78.3847 420.952 78.3847C414.181 78.3847 407.41 83.3326 400.379 93.4888V158.853C400.379 182.29 400.379 190.623 414.702 190.623V196.873H368.348V190.623C382.671 190.623 382.671 182.29 382.671 158.853V104.687C382.671 83.8534 381.369 74.7389 368.608 82.0305L365.483 76.5618L395.171 59.3745H400.379V82.8118C406.889 72.1348 415.223 59.3745 429.025 59.3745C442.306 59.3745 448.556 71.3535 451.42 85.9368C458.191 74.9994 466.785 59.3745 482.149 59.3745C502.201 59.3745 506.628 86.718 506.628 109.895V158.853C506.628 182.29 506.628 190.623 520.951 190.623V196.873H474.597V190.623C488.92 190.623 488.92 182.29 488.92 158.853V112.239C488.92 101.301 488.399 78.3847 474.076 78.3847C467.306 78.3847 460.014 83.593 452.722 94.5304C453.243 99.7387 453.504 104.947 453.504 109.895V158.853C453.504 182.29 453.504 190.623 465.743 190.623V196.873H423.556Z" fill="white"/>
<path d="M585.243 155.467C585.243 181.248 571.441 198.957 553.212 198.957C542.795 198.957 532.639 193.227 529.254 193.227C527.691 193.227 526.129 194.269 526.129 196.873H521.441V148.697H526.129C528.733 167.186 536.545 189.321 552.951 189.321C563.889 189.321 569.357 179.426 569.357 168.749C569.357 153.645 558.42 145.572 544.878 138.28C527.952 129.166 520.92 117.968 520.92 99.2179C520.92 79.166 530.556 59.3745 548.785 59.3745C558.42 59.3745 565.972 64.8432 569.878 64.8432C572.482 64.8432 573.524 62.239 573.524 59.3745H578.212V105.468H573.524C570.399 88.0201 566.493 69.0098 550.087 69.0098C539.41 69.0098 533.941 77.0827 533.941 87.4992C533.941 98.1762 539.41 104.426 549.826 111.718C578.212 131.509 585.243 136.718 585.243 155.467Z" fill="white"/>
</g>
</svg>
