<svg width="32" height="32" viewBox="0 0 32 32" fill="none" xmlns="http://www.w3.org/2000/svg">
<g clip-path="url(#clip0_848_3604)">
<path d="M16.4854 27.8192C19.3783 27.8192 21.8155 23.3808 22.4495 22.3306C23.2619 21.0229 22.8854 19.735 22.8854 18.9622C22.8854 18.4471 24.53 17.1789 24.53 15.8712C24.53 14.5238 21.3399 13.335 21.3399 12.6217C21.3399 12.1461 21.6966 11.7499 22.0731 11.7499C22.7269 11.7499 24.4507 13.9096 25.382 13.9096C26.0161 13.9096 26.0755 13.3746 26.4124 13.3746C27.1851 13.3746 27.2842 17.8725 29.8204 18.9028C30.5932 18.0706 31.0291 17.1988 31.0291 15.9901C31.0291 7.80682 24.213 0.951065 15.9703 0.951065C11.0563 0.951065 9.47121 2.95233 9.47121 4.39874C9.47121 6.4 7.8068 6.85571 7.8068 8.08422C7.8068 8.87678 8.38141 9.41178 9.27306 9.41178C11.096 9.41178 11.096 7.43032 11.9282 7.43032C12.5622 7.45016 13.1963 8.53993 14.4446 8.53993C14.9796 8.53993 15.2372 8.16347 15.257 7.66812C15.257 7.48977 15.356 7.39071 15.5146 7.39071C16.5053 7.39071 17.5356 8.52012 17.5356 9.15418C17.5356 9.80804 17.2978 10.2638 16.9214 10.2638C16.2279 10.2638 14.504 9.49103 12.9387 9.49103C9.41176 9.49103 6.49908 11.9282 6.49908 14.9003C6.49908 17.496 8.02475 19.0019 10.6997 19.0019C12.265 19.0019 13.434 20.0718 13.434 21.5182C13.434 23.8167 13.1764 27.8192 16.4854 27.8192ZM20.4285 6.63776C19.8539 6.63776 19.6359 6.93496 19.1207 6.93496C18.6254 6.93496 18.2687 6.59816 18.2687 6.1028C18.2687 5.33004 19.0216 4.91394 20.3096 4.91394C21.4192 4.91394 22.2514 5.48855 22.2514 6.22166C22.2514 6.63776 21.9938 6.97461 21.6371 6.97461C21.0625 6.97461 20.7653 6.63776 20.4285 6.63776ZM15.9901 31.9802C24.7281 31.9802 32 24.7282 32 15.9901C32 7.25201 24.7083 0 15.9703 0C7.25199 0 0 7.25201 0 15.9901C0 24.7282 7.27184 31.9802 15.9901 31.9802ZM15.9901 29.6025C8.57955 29.6025 2.3975 23.4006 2.3975 15.9901C2.3975 8.57957 8.55975 2.37772 15.9703 2.37772C23.4006 2.37772 29.6025 8.57957 29.6025 15.9901C29.6025 23.4006 23.4204 29.6025 15.9901 29.6025Z" fill="black"/>
</g>
<defs>
<clipPath id="clip0_848_3604">
<rect width="32" height="32" fill="white"/>
</clipPath>
</defs>
</svg>
